<?xml version="1.0" encoding="utf-8"?>
<!-- Generator: Adobe Illustrator 23.0.4, SVG Export Plug-In . SVG Version: 6.00 Build 0)  -->
<svg version="1.1" id="圖層_1" xmlns="http://www.w3.org/2000/svg" xmlns:xlink="http://www.w3.org/1999/xlink" x="0px" y="0px"
	 viewBox="0 0 1920 342" style="enable-background:new 0 0 1920 342;" xml:space="preserve">
<style type="text/css">
	.st0{fill:#232A34;}
	.st1{fill:#ED3744;}
	.st2{fill:#0077FF;stroke:#707070;}
	.st3{fill:#00D3FF;}
	.st4{fill:none;stroke:#707070;}
	.st5{fill:#FF9900;}
	.st6{fill:#FF2F47;}
	.st7{fill:#707070;}
	.st8{fill:#F33444;}
</style>
<g id="Group_628" transform="translate(22.415 -2340)">
	<g id="Group_52" transform="translate(-1141 4757)">
		<polygon class="st0" points="3038.58,-2074.68 3038.58,-2195.62 2974.64,-2146.91 2929.86,-2181.37 2871.14,-2146.91 
			2725.06,-2187.6 2618.99,-2116.49 2559.16,-2164.14 2497.14,-2131.51 2392.53,-2244.41 2222.96,-2131.51 2182.95,-2164.14 
			2136.71,-2125.28 1978.89,-2215.82 1935.58,-2194.56 1880.52,-2271.53 1802.71,-2153.14 1728.58,-2117.59 1662.88,-2176.97 
			1558.27,-2123.08 1505.05,-2196.76 1461.74,-2161.57 1418.43,-2222.79 1332.92,-2122.72 1288.69,-2156.88 1118.58,-2133.22 
			1118.58,-2074.68 		"/>
		<path id="Path_130" class="st1" d="M1288.27-2156.87l11.06,29.54l-20.98,20.98h36.3l-15.32,11.29h71.8l-25.01-28.24h-12.9
			L1288.27-2156.87z"/>
		<path id="Path_131" class="st1" d="M1455.04-2095.06h57.28l-94.79-128.6L1455.04-2095.06z"/>
		<path id="Path_132" class="st1" d="M1504.58-2196.62l41.13,99.88h57.65l-8.81-3.67h16.89l-37.09-31.21l-16.52,8.81
			L1504.58-2196.62z"/>
		<path id="Path_133" class="st1" d="M1662.47-2176.43l-13.95,42.23l47,12.49l-18.19,21.69l71.36,2.48L1662.47-2176.43z"/>
		<path id="Path_134" class="st1" d="M1880.26-2271.53l32.27,80.91l-37.23,30.41l40.96,24.2l-26.68,32.27h127.21l-69.5-61.43
			l-2.48-34.13l-8.69,3.72L1880.26-2271.53z"/>
		<path id="Path_135" class="st1" d="M2175.03-2103.75h-93.71l23.58-13.65l-93.71-25.44l25.44-15.51l-58.33-57.72l86.88,45.3
			l13.03,23.58h23.58L2175.03-2103.75z"/>
		<path id="Path_136" class="st1" d="M2393.47-2244.62l28.55,76.95v42.82l35.37,14.89l-61.44,8.69h135.91L2393.47-2244.62z"/>
		<path id="Path_137" class="st1" d="M2572.81-2090.1H2651l-91.84-74.47l-12.41,44.06l47.78,9.31L2572.81-2090.1z"/>
		<path id="Path_138" class="st1" d="M2724.85-2186.91l68.88,37.85l-11.79,19.24l52.13,4.96l-45.92,19.86h151.42l-63.97-44.06
			l-5.37,2.79L2724.85-2186.91z"/>
		<g id="Group_50" transform="translate(1140 -2967)">
			<g id="Group_49" transform="translate(0 1)">
				<path id="Subtraction_1" class="st2" d="M824.59,645.87h-46.08v-46.08h46.01l-15.75,23.83l15.82,21.21L824.59,645.87
					L824.59,645.87z"/>
				<g id="Rectangle_21" transform="translate(915 584)">
					<rect x="-173.94" y="5.99" class="st3" width="49.54" height="47.23"/>
					<rect x="-173.36" y="6.57" class="st4" width="48.39" height="46.08"/>
				</g>
			</g>
			<g id="Rectangle_20" transform="translate(914 585)">
				<rect x="-174.09" y="5.99" class="st5" width="4.61" height="119.82"/>
				<rect x="-173.51" y="6.57" class="st4" width="3.46" height="118.66"/>
			</g>
			<g id="Path_140" transform="translate(909 572)">
				<path class="st6" d="M-166.78,19.57c-4.13,0-7.49-3.36-7.49-7.49s3.36-7.49,7.49-7.49c4.13,0,7.49,3.36,7.49,7.49
					S-162.66,19.57-166.78,19.57z"/>
				<path class="st7" d="M-166.78,5.16c-3.81,0-6.91,3.1-6.91,6.91s3.1,6.91,6.91,6.91c3.81,0,6.91-3.1,6.91-6.91
					S-162.97,5.16-166.78,5.16 M-166.78,4.01c4.45,0,8.06,3.61,8.06,8.06s-3.61,8.06-8.06,8.06s-8.06-3.61-8.06-8.06
					S-171.24,4.01-166.78,4.01z"/>
			</g>
		</g>
		<g id="Union_3" transform="translate(1772 -3617)">
			<path class="st8" d="M476.28,1288.8h-65.37c-3.81,0-7.51-0.75-10.99-2.22c-3.36-1.42-6.38-3.46-8.97-6.05
				c-2.59-2.59-4.63-5.61-6.05-8.97c-1.47-3.48-2.22-7.18-2.22-10.99c0-6.97,2.56-13.66,7.2-18.84c4.61-5.14,10.91-8.41,17.74-9.2
				l0.47-0.05l0.04-0.47c0.65-8.36,4.41-16.11,10.57-21.84c6.2-5.76,14.27-8.93,22.74-8.93c6.72,0,13.2,1.99,18.74,5.74
				c5.41,3.67,9.59,8.78,12.1,14.79l0.16,0.39l0.42-0.04c1.04-0.1,2.09-0.15,3.14-0.15c4.51,0,8.89,0.88,13,2.63
				c3.98,1.68,7.55,4.09,10.62,7.16s5.48,6.64,7.16,10.62c1.74,4.12,2.63,8.49,2.63,13c0,4.46-0.87,8.8-2.57,12.88
				c-1.65,3.94-4.01,7.5-7.03,10.56c-3.01,3.06-6.52,5.48-10.44,7.19c-4.05,1.77-8.36,2.7-12.81,2.78L476.28,1288.8z"/>
			<path class="st7" d="M476.28,1288.22l0.28,0c4.37-0.07,8.61-0.99,12.58-2.73c3.85-1.68,7.3-4.06,10.26-7.07
				c2.96-3.01,5.28-6.5,6.91-10.37c1.68-4.01,2.53-8.27,2.53-12.66c0-4.43-0.87-8.73-2.58-12.78c-1.65-3.91-4.02-7.42-7.04-10.44
				c-3.02-3.02-6.53-5.38-10.44-7.04c-4.05-1.71-8.35-2.58-12.78-2.58c-1.03,0-2.07,0.05-3.09,0.14l-0.84,0.08l-0.33-0.78
				c-2.47-5.9-6.58-10.93-11.89-14.53c-5.44-3.69-11.81-5.64-18.41-5.64c-8.32,0-16.25,3.12-22.34,8.77
				c-6.06,5.63-9.75,13.25-10.39,21.46l-0.07,0.95l-0.94,0.11c-6.69,0.78-12.86,3.98-17.37,9.01c-4.55,5.08-7.06,11.63-7.06,18.45
				c0,3.73,0.73,7.35,2.17,10.76c1.39,3.29,3.39,6.25,5.93,8.79c2.54,2.54,5.5,4.53,8.79,5.93c3.41,1.44,7.03,2.17,10.76,2.17
				H476.28 M476.57,1289.38h-65.67c-15.91,0-28.8-12.9-28.8-28.8c0-14.77,11.12-26.95,25.45-28.61c1.37-17.51,16.02-31.3,33.88-31.3
				c14.13,0,26.24,8.62,31.37,20.89c1.05-0.1,2.12-0.15,3.19-0.15c18.77,0,33.99,15.22,33.99,33.99
				C509.98,1273.97,495.08,1289.06,476.57,1289.38L476.57,1289.38z"/>
		</g>
		<g id="Union_4" transform="translate(1972 -3583)">
			<path class="st8" d="M458.6,1244.43h-31.68v-0.04l-0.6,0.03c-0.18,0.01-0.37,0.01-0.55,0.01c-3.39,0-6.57-1.32-8.96-3.71
				c-2.39-2.39-3.71-5.58-3.71-8.96c0-3.38,1.32-6.57,3.71-8.96c2.39-2.39,5.58-3.71,8.96-3.71c0.19,0,0.38,0,0.56,0.01l0.58,0.03
				l0.02-0.58c0.14-3.27,1.51-6.32,3.88-8.6c2.37-2.28,5.49-3.54,8.78-3.54c2.39,0,4.71,0.67,6.72,1.93
				c1.96,1.23,3.54,2.97,4.59,5.02l0.25,0.49l0.5-0.22c2.19-0.97,4.53-1.46,6.95-1.46c4.47,0,8.66,1.68,11.82,4.73
				c3.15,3.05,4.89,7.09,4.89,11.4c0,4.3-1.74,8.35-4.89,11.4C467.26,1242.75,463.07,1244.43,458.6,1244.43z"/>
			<path class="st7" d="M458.6,1243.86c4.32,0,8.37-1.62,11.42-4.57c3.04-2.94,4.71-6.84,4.71-10.98c0-4.15-1.67-8.05-4.71-10.98
				c-3.05-2.95-7.1-4.57-11.42-4.57c-2.34,0-4.6,0.47-6.72,1.41l-1,0.44l-0.49-0.97c-1-1.96-2.51-3.62-4.38-4.8
				c-1.92-1.2-4.14-1.84-6.42-1.84c-3.14,0-6.12,1.2-8.38,3.38c-2.26,2.17-3.57,5.09-3.7,8.21l-0.05,1.15l-1.15-0.05
				c-0.18-0.01-0.36-0.01-0.54-0.01c-3.23,0-6.27,1.26-8.55,3.54c-2.28,2.28-3.54,5.32-3.54,8.55c0,6.67,5.43,12.1,12.1,12.1
				c0.18,0,0.35,0,0.53-0.01l1.2-0.05v0.06H458.6 M458.6,1245.01h-32.26V1245c-0.19,0.01-0.38,0.01-0.58,0.01
				c-7.32,0-13.25-5.93-13.25-13.25c0-7.32,5.93-13.25,13.25-13.25c0.2,0,0.39,0,0.59,0.01c0.29-7.06,6.11-12.69,13.24-12.69
				c5.16,0,9.64,2.96,11.83,7.27c2.19-0.97,4.62-1.51,7.18-1.51c9.54,0,17.28,7.48,17.28,16.7
				C475.88,1237.53,468.14,1245.01,458.6,1245.01z"/>
		</g>
		<g id="Union_2" transform="translate(1196 -3593)">
			<path class="st8" d="M360.18,1264.8h-46.93l-0.29-0.01c-4.8-0.15-9.3-2.19-12.65-5.74c-3.37-3.57-5.22-8.28-5.22-13.26
				c0-5,1.87-9.73,5.26-13.3c3.38-3.56,7.91-5.59,12.74-5.7l0.63-0.01l-0.07-0.63c-0.08-0.74-0.13-1.49-0.13-2.24
				c0-5.08,1.92-9.86,5.4-13.45c3.48-3.59,8.11-5.56,13.03-5.56c8.86,0,16.48,6.51,18.11,15.47l0.13,0.73l0.68-0.32
				c2.93-1.37,6.06-2.06,9.3-2.06c3.03,0,5.97,0.61,8.74,1.81c2.67,1.16,5.08,2.82,7.14,4.94c2.06,2.12,3.69,4.58,4.82,7.32
				c1.17,2.84,1.77,5.86,1.77,8.97c0,3.11-0.59,6.13-1.77,8.97c-1.13,2.74-2.75,5.21-4.82,7.32c-2.06,2.12-4.47,3.78-7.14,4.94
				C366.15,1264.19,363.21,1264.8,360.18,1264.8z"/>
			<path class="st7" d="M360.18,1264.22c2.95,0,5.82-0.59,8.51-1.76c2.61-1.13,4.95-2.75,6.96-4.81c2.01-2.06,3.59-4.47,4.7-7.14
				c1.14-2.77,1.72-5.72,1.72-8.75c0-3.04-0.58-5.98-1.72-8.75c-1.1-2.68-2.68-5.08-4.7-7.14c-2.01-2.06-4.35-3.68-6.96-4.81
				c-2.7-1.17-5.56-1.76-8.51-1.76c-3.16,0-6.21,0.68-9.06,2.01l-1.35,0.63l-0.27-1.47c-1.59-8.69-8.97-15-17.55-15
				c-4.76,0-9.24,1.91-12.61,5.39c-3.38,3.48-5.24,8.12-5.24,13.05c0,0.73,0.04,1.46,0.12,2.18l0.14,1.25l-1.26,0.03
				c-4.68,0.11-9.06,2.07-12.33,5.52c-3.29,3.47-5.11,8.05-5.11,12.9c0,4.83,1.8,9.4,5.07,12.86c3.25,3.44,7.6,5.42,12.25,5.56
				l0.28,0.01H360.18 M360.18,1265.38h-47.23v-0.01c-10.23-0.31-18.43-8.96-18.43-19.58c0-10.66,8.27-19.34,18.56-19.58
				c-0.09-0.76-0.13-1.53-0.13-2.31c0-10.82,8.51-19.59,19.01-19.59c9.29,0,17.02,6.87,18.68,15.94c2.91-1.36,6.14-2.12,9.55-2.12
				c12.73,0,23.04,10.57,23.04,23.62C383.22,1254.8,372.91,1265.38,360.18,1265.38z"/>
		</g>
	</g>
</g>
</svg>
