<?xml version="1.0" encoding="utf-8"?>
<!-- Generator: Adobe Illustrator 23.0.4, SVG Export Plug-In . SVG Version: 6.00 Build 0)  -->
<svg version="1.1" id="圖層_1" xmlns="http://www.w3.org/2000/svg" xmlns:xlink="http://www.w3.org/1999/xlink" x="0px" y="0px"
	 viewBox="0 0 1920 1319" style="enable-background:new 0 0 1920 1319;" xml:space="preserve">
<style type="text/css">
	.st0{opacity:0.35;fill:#51E3D4;enable-background:new    ;}
	.st1{opacity:0.61;fill:#F3ECD3;enable-background:new    ;}
	.st2{opacity:0.28;fill:#51E3D4;enable-background:new    ;}
	.st3{opacity:0.3;fill:#474F85;enable-background:new    ;}
</style>
<g id="Group_995" transform="translate(290.894 331.586)">
	<g id="Group_901" transform="translate(-290.894 -331.586)">
		<path id="Path_7530" class="st0" d="M1763.64,668.96c0,104.43-107.48,207.86-239.13,207.86s-219.62-104.41-237.62-207.86
			c-20.94-120.38,179.72-256.69,311.37-256.69S1763.64,564.53,1763.64,668.96z"/>
		<path id="Path_7532" class="st1" d="M1920,161.78c0,89.35-187.11,188.33-424.35,188.33S939.2,415,1060.88,161.78
			C1104.82,70.35,1253.2,0,1490.44,0S1920,72.43,1920,161.78z"/>
		<path id="Path_7533" class="st2" d="M691.13,411.4c7.14,71.52-144.56-8.1-324.21,3.19C187.27,425.89,47.7,523.8,40.56,452.29
			s120.84-285.38,300.5-296.67S683.99,339.89,691.13,411.4z"/>
		<path id="Path_7534" class="st3" d="M867.97,234.68c-45.84,77.95-218.85,140.82-280.19,118.12s-73.91-104.3-28.08-182.25
			C605.54,92.59,692.44,47.8,753.79,70.5S913.81,156.72,867.97,234.68z"/>
		<path id="Path_7535" class="st1" d="M319,878.58c24.19,33.4-2.83,120.28-85.14,157.79c-82.3,37.51-224.42,19.72-229.74-33.79
			c-3.86-38.85,102.46-2.51,159.73-61.58C243.45,858.89,294.81,845.18,319,878.58z"/>
		<path id="Path_7536" class="st1" d="M1162.66,1135.75c-74.31,126.37-371.32,222.15-479.87,181.98
			c-108.55-40.17-136.3-175.17-61.99-301.53s222.55-196.24,331.1-156.08C1060.46,900.29,1236.97,1009.39,1162.66,1135.75z"/>
	</g>
</g>
</svg>
